<svg width="65" height="59" viewBox="0 0 65 59" fill="none" xmlns="http://www.w3.org/2000/svg">
<path d="M0.124065 0.592757C0.0551402 0.565187 0 0.427336 0 0.275701C0 0 0.0964949 0 10.3664 0C16.0596 0 20.6776 0.0275701 20.6362 0.0689252C20.5811 0.11028 21.7942 1.79206 23.3243 3.83224C24.8544 5.85864 26.9773 8.65701 28.0388 10.0631C29.1002 11.4692 30.4374 13.2336 31.0164 13.9918C31.5953 14.75 32.6568 16.1285 33.3736 17.0659C34.0766 18.0033 34.7108 18.7477 34.7521 18.7201C34.8072 18.6925 36.4477 16.8867 38.3914 14.6811C40.3488 12.4893 43.285 9.16706 44.9255 7.31986C46.5659 5.45888 48.6474 3.11542 49.5572 2.09533C50.4671 1.07523 51.1977 0.192991 51.1701 0.124065C51.1563 0.0551402 53.3344 0 56.1741 0C58.9449 0 61.2056 0.0413551 61.2056 0.11028C61.2194 0.165421 59.7995 1.81963 58.0764 3.79089C56.3533 5.76215 54.0787 8.36752 53.0173 9.56682L53.0172 9.5669C51.942 10.78 50.3292 12.5996 49.4332 13.6334C48.5668 14.6331 47.3138 16.058 46.5963 16.874L46.5245 16.9556C45.8215 17.7551 44.2638 19.5196 43.0645 20.8843C41.8652 22.2628 40.528 23.7654 39.3563 25.1026L39.6458 25.4058C39.8112 25.5713 40.6245 26.6051 41.4516 27.7079C42.2787 28.8107 43.8502 30.8923 44.9393 32.3259C46.0283 33.7596 47.8755 36.2133 49.061 37.771C50.2327 39.3287 51.8593 41.4654 52.6589 42.5269C53.4584 43.5883 55.1953 45.8904 56.5187 47.6273C57.8421 49.3643 59.8547 52.0386 60.9988 53.5549C62.1568 55.0713 63.5077 56.8771 64.0178 57.5526C64.5278 58.228 64.9414 58.8346 64.9276 58.9035C64.9276 58.9586 60.3923 59 54.8645 59C49.3367 59 44.8014 58.9586 44.8014 58.9035C44.8014 58.8346 44.1122 57.8834 43.2575 56.7668C42.4028 55.664 39.6458 52.0661 37.1507 48.7991C34.6418 45.5182 31.8572 41.8652 30.9474 40.6935C30.0376 39.5079 29.2381 38.543 29.1554 38.543C29.0865 38.5292 27.6252 40.1145 25.9297 42.0444C24.2341 43.9743 21.4633 47.1449 19.7815 49.0748C18.086 51.0047 15.4944 53.9685 14.0056 55.6502C12.5168 57.3458 11.3037 58.7794 11.3037 58.8621C11.3037 58.9449 9.53925 59 6.2722 59C3.5014 59 1.24065 58.9586 1.24065 58.9035C1.24065 58.8346 3.07407 56.6841 5.32103 54.1063C7.56799 51.5285 10.3388 48.3442 11.4967 47.0208C12.6409 45.6974 13.7988 44.3741 14.0745 44.057C14.3502 43.74 15.646 42.2512 16.9694 40.7348C18.279 39.2185 20.4294 36.7509 21.739 35.2621C23.0486 33.7596 24.1514 32.4362 24.1928 32.3259C24.2341 32.2019 23.6965 31.361 22.8832 30.2995C22.125 29.2932 20.8154 27.5701 19.9745 26.4673C19.1336 25.3645 18.1136 24.0273 17.7138 23.5035C17.314 22.9797 16.225 21.5322 15.2876 20.3192C14.3502 19.0923 12.2136 16.2939 10.5456 14.1159C8.87757 11.9378 7.11308 9.60818 6.61682 8.96028C6.12056 8.31238 4.48014 6.1757 2.97757 4.20444C1.475 2.23318 0.192991 0.606542 0.124065 0.592757Z" fill="#010101"/>
<path d="M15.9493 11.4142C13.7023 8.46417 11.8138 5.96908 11.7724 5.8588C11.6897 5.66581 12.0343 5.65202 17.5621 5.72095L20.4294 9.51184C22.0147 11.5934 24.1928 14.4745 25.2818 15.9219C26.3708 17.3693 28.2731 19.8782 29.5 21.5048C30.7407 23.1315 32.3259 25.213 33.0152 26.1228C33.7044 27.0326 35.4276 29.2934 36.8199 31.1544C38.2259 33.0153 41.81 37.7574 44.8014 41.6999C47.779 45.6424 50.8806 49.7366 51.6939 50.798C52.4935 51.8595 53.1965 52.8107 53.2516 52.9072C53.3206 53.0312 52.7554 53.0726 47.8341 53.0726L46.3453 51.1289C45.532 50.0537 44.0157 48.0548 42.968 46.6763C41.9065 45.3116 40.6245 43.616 40.1007 42.9406C39.5769 42.2651 38.6119 40.9831 37.9364 40.1146C37.2748 39.2462 35.6481 37.1371 34.3523 35.4277C33.0428 33.7184 31.4437 31.6506 30.8096 30.8097C30.1617 29.9688 29.0727 28.549 28.3696 27.6392C27.6804 26.7294 26.3984 25.0614 25.5161 23.9172C24.6477 22.7868 23.0624 20.7053 21.9871 19.2992C20.9119 17.8931 18.1963 14.3504 15.9493 11.4142Z" fill="#D88D5E"/>
</svg>
