<svg width="82" height="88" viewBox="0 0 82 88" fill="none" xmlns="http://www.w3.org/2000/svg">
<path d="M32.7032 3.57788C33.7796 3.41908 34.7148 3.20733 34.8206 3.11911C34.9265 3.01323 37.3792 2.97794 40.9965 3.01323C44.5785 3.04852 47.3488 3.17204 47.8781 3.27791C48.3546 3.40143 49.9956 3.71905 51.4954 4.00137C52.9953 4.28369 55.3774 4.90128 56.789 5.36006C58.3771 5.87177 60.3886 6.73639 62.0826 7.58336C63.5824 8.34211 65.5763 9.48905 66.4763 10.1419C67.3938 10.8124 68.8937 12.0476 69.8112 12.9299C70.7288 13.8121 71.8934 15.0297 72.4051 15.6649C72.9168 16.3001 73.7108 17.4118 74.1872 18.1352C74.646 18.8587 75.4048 20.2174 75.8635 21.1349C76.3223 22.0525 76.9752 23.6406 77.3105 24.664C77.6634 25.6874 78.1045 27.3108 78.2986 28.2813C78.5103 29.2518 78.7574 31.2457 78.8809 32.6926C79.0397 34.7218 79.0397 35.9746 78.8809 38.0744C78.7574 39.5743 78.4574 41.7976 78.228 43.0151C77.981 44.2326 77.5398 45.9795 77.2399 46.8971C76.9399 47.8146 76.4282 49.2439 76.0753 50.0732C75.74 50.9025 75.193 52.0671 74.8578 52.6847C74.2755 53.7611 74.2578 53.8317 74.2578 55.8609C74.2578 57.3078 74.152 58.3489 73.9049 59.3899C73.7108 60.184 73.305 61.3309 73.005 61.9485C72.705 62.5484 72.211 63.3954 71.8757 63.8365C71.5581 64.2777 70.7641 65.0893 70.0935 65.6363C69.3348 66.2539 68.1526 66.9774 66.935 67.542C65.8587 68.0537 64.7294 68.5831 64.4118 68.7419C64.0941 68.9184 63.6883 69.1831 63.5295 69.3771C63.3178 69.6065 63.1942 70.1888 63.106 71.3181C63.0354 72.2004 62.8237 73.4003 62.6119 73.9826C62.4178 74.5649 61.9591 75.553 61.5885 76.1882C61.2356 76.8235 60.4592 77.8469 59.8769 78.4645C59.2946 79.0821 58.3065 79.9643 57.6713 80.4407C57.036 80.9172 55.695 81.7288 54.6716 82.2582C53.6481 82.7876 52.0248 83.4581 51.0543 83.7757C50.0838 84.0757 48.5663 84.4815 47.7017 84.658C46.8371 84.8521 45.0725 85.0815 43.8197 85.205C42.514 85.3108 40.6436 85.3638 39.4966 85.2932C38.385 85.2403 36.6734 85.0638 35.7029 84.9226C34.7324 84.7815 33.2149 84.4639 32.3503 84.2168C31.4857 83.9874 30.0388 83.511 29.1741 83.1581C28.3095 82.8052 27.0214 82.1876 26.3509 81.7994C25.6804 81.3936 24.7628 80.7936 24.3217 80.476C23.8805 80.1408 23.0689 79.4173 22.5042 78.8703C21.9396 78.3233 21.1279 77.3528 20.6868 76.7176C20.2633 76.0824 19.6986 74.9707 19.4516 74.2472C19.1869 73.4885 18.9399 72.2886 18.8516 71.424C18.7987 70.5947 18.6399 69.7477 18.534 69.536C18.4105 69.3066 17.9517 68.936 17.493 68.7066C17.0165 68.4772 16.2048 68.1067 15.6755 67.8949C15.1461 67.6832 14.1403 67.1891 13.4698 66.7833C12.7993 66.3951 11.67 65.5128 10.9995 64.8247C10.1349 63.9424 9.57022 63.1837 9.11144 62.2485C8.75854 61.525 8.31741 60.4133 8.1586 59.7781C7.94686 59.0017 7.82334 57.8724 7.75276 53.8669L6.69404 51.7495C6.11175 50.5849 5.30006 48.6616 4.91187 47.4617C4.52367 46.2795 4.01196 44.3385 3.76492 43.1563C3.53553 41.9564 3.23556 39.9977 3.12969 38.7802C3.00618 37.5274 2.97089 35.4276 3.02382 33.9278C3.07676 32.4809 3.2885 30.3458 3.4826 29.1988C3.69434 28.0695 4.13547 26.2344 4.48838 25.1581C4.84129 24.0641 5.42358 22.5289 5.79413 21.7525C6.14704 20.9761 6.81756 19.7057 7.27633 18.9293C7.75276 18.1529 8.61738 16.8824 9.23496 16.106C9.85255 15.3296 11.0171 14.0415 11.8112 13.2475C12.6229 12.4535 13.611 11.5536 13.9992 11.2359C14.3874 10.936 15.2696 10.3007 15.9402 9.84196C16.6107 9.38318 17.74 8.69502 18.4105 8.30682C19.081 7.91862 20.3515 7.28339 21.2338 6.8952C22.116 6.48936 23.6159 5.88942 24.5864 5.55416C25.5568 5.21889 27.339 4.68954 28.5565 4.40721C29.7741 4.10724 31.6268 3.73669 32.7032 3.57788Z" stroke="#D88D5E" stroke-width="5"/>
<path d="M25.7434 31.5021C26.2728 31.2903 27.1021 31.0609 27.5962 30.9904C28.0726 30.9021 28.9549 30.8845 29.5372 30.9374C30.1195 30.9727 31.0723 31.1315 31.6546 31.2727C32.2369 31.4139 33.1015 31.7491 33.5779 32.0138C34.0544 32.2785 34.8131 32.8961 35.2542 33.3901C35.6954 33.8665 36.2777 34.7135 36.5424 35.2429C36.807 35.7722 37.1423 36.6721 37.2835 37.2544C37.4423 37.8367 37.5658 38.9837 37.5658 39.813C37.5658 40.8364 37.4599 41.7011 37.1952 42.548C37.0011 43.2362 36.56 44.2596 36.2424 44.8419C35.9248 45.4242 35.3425 46.2535 34.9719 46.6947C34.5837 47.1358 33.772 47.824 33.1368 48.2475C32.5192 48.6709 31.3899 49.2003 30.6312 49.4473C29.5901 49.7649 28.8843 49.8708 27.6491 49.8708C26.7492 49.8708 25.4964 49.7649 24.8612 49.6238C24.2259 49.5003 23.3966 49.2356 23.0084 49.0415C22.6202 48.8474 21.9144 48.2475 21.4556 47.7357C20.9792 47.2064 20.4322 46.3418 20.2205 45.8124C19.9029 45.0007 19.8499 44.4714 19.8499 42.548C19.8499 40.8717 19.9381 39.9189 20.1675 39.019C20.344 38.3308 20.7145 37.1839 20.9969 36.4604C21.2792 35.7369 21.8615 34.6782 22.3026 34.1312C22.7437 33.5666 23.4672 32.8255 23.926 32.4902C24.4024 32.155 25.2141 31.7138 25.7434 31.5021Z" fill="#D88D5E"/>
<path d="M49.6528 31.4491C50.1469 31.308 50.7292 31.1492 50.9762 31.1139C51.2232 31.0786 51.9643 31.0257 52.6525 31.008C53.3407 31.008 54.3464 31.1139 54.9111 31.255C55.4581 31.3962 56.4109 31.7668 57.0285 32.0844C57.6285 32.3843 58.5637 33.0725 59.1107 33.6195C59.7459 34.2371 60.3106 35.0311 60.6458 35.7546C60.9458 36.3898 61.4046 37.625 61.6692 38.4896C61.9869 39.6189 62.1633 40.66 62.2162 42.1069C62.3045 43.8361 62.2692 44.3126 61.9516 45.3713C61.7222 46.1477 61.334 46.9417 60.9105 47.4887C60.5223 47.9828 59.8165 48.5827 59.3401 48.8474C58.8636 49.1121 57.9284 49.4473 57.2403 49.5885C56.5521 49.7473 55.3346 49.8708 54.5053 49.8708C53.6759 49.8708 52.4937 49.7473 51.8585 49.5885C51.2232 49.4473 50.2351 49.0768 49.6528 48.7592C49.0705 48.4592 48.0824 47.6828 47.4471 47.0476C46.759 46.3594 46.0355 45.4066 45.6473 44.6655C45.2944 43.9773 44.8709 42.9539 44.6945 42.3716C44.5004 41.6834 44.3945 40.7129 44.3945 39.6366C44.3945 38.5425 44.5004 37.5897 44.6945 36.9015C44.8709 36.3192 45.2062 35.4723 45.4356 35.0135C45.665 34.5371 46.1943 33.796 46.6002 33.3548C47.0237 32.8961 47.6765 32.3491 48.0647 32.1197C48.4529 31.8903 49.1764 31.5903 49.6528 31.4491Z" fill="#D88D5E"/>
<path d="M38.4304 50.0649C38.8715 49.5356 39.5597 48.8827 39.9302 48.6004C40.3184 48.3357 40.7243 48.1063 40.8654 48.1063C40.989 48.1063 41.3066 48.2122 41.5889 48.3533C41.8536 48.4768 42.5065 49.0591 43.0358 49.6414C43.5652 50.2061 44.3769 51.2295 44.818 51.9177C45.2768 52.5882 45.9649 53.7704 46.3531 54.5468C46.7413 55.3232 47.2354 56.5584 47.4648 57.2818C47.6765 58.0229 47.8706 59.0817 47.8706 59.664C47.8706 60.4227 47.7648 60.8991 47.5001 61.3403C47.2707 61.7285 46.8648 62.0814 46.4061 62.2755C46.0179 62.4343 45.4885 62.5754 45.2415 62.5754C44.9944 62.5754 44.5004 62.4343 44.1475 62.2755C43.7946 62.099 43.2123 61.6049 42.8594 61.1638C42.5241 60.7227 42.0124 59.8228 41.7124 59.1875C41.4125 58.5347 41.1478 57.9877 41.0948 57.9877C41.0419 57.9877 40.8654 58.4111 40.6714 58.9052C40.4949 59.4169 40.1596 60.1227 39.9479 60.458C39.7362 60.7933 39.3303 61.305 39.048 61.5696C38.7657 61.8343 38.2716 62.1696 37.9716 62.3107C37.654 62.4519 37.0894 62.5754 36.7365 62.5754C36.3659 62.5754 35.7836 62.4343 35.4483 62.2578C35.0602 62.0461 34.6896 61.6402 34.4249 61.1462C34.2132 60.7227 34.0367 60.0874 34.0367 59.7522C34.0367 59.4169 34.1955 58.4994 34.3896 57.723C34.6014 56.9466 35.0778 55.6408 35.466 54.8115C35.8542 53.9822 36.5071 52.7999 36.8953 52.1647C37.2835 51.5295 37.9716 50.5943 38.4304 50.0649Z" fill="#D88D5E"/>
</svg>
