<svg width="150" height="133" viewBox="0 0 150 133" fill="none" xmlns="http://www.w3.org/2000/svg">
<path d="M59.41 4.09747C61.4541 3.79588 63.2302 3.39375 63.4312 3.2262C63.6323 3.02513 68.2902 2.95811 75.1599 3.02513C81.9625 3.09215 87.2237 3.32673 88.229 3.52779C89.1338 3.76236 92.2503 4.36555 95.0987 4.90172C97.9471 5.43789 102.471 6.61076 105.152 7.48203C108.168 8.45384 111.988 10.0959 115.205 11.7044C118.053 13.1453 121.84 15.3235 123.549 16.5634C125.292 17.8368 128.14 20.1825 129.883 21.8581C131.625 23.5336 133.837 25.8458 134.809 27.0522C135.78 28.2586 137.288 30.3697 138.193 31.7437C139.064 33.1176 140.505 35.6979 141.377 37.4405C142.248 39.183 143.488 42.1989 144.125 44.1426C144.795 46.0862 145.633 49.1691 146.001 51.0122C146.403 52.8553 146.872 56.642 147.107 59.3898C147.409 63.2436 147.409 65.6228 147.107 69.6106C146.872 72.459 146.303 76.6813 145.867 78.9935C145.398 81.3057 144.56 84.6233 143.991 86.3658C143.421 88.1084 142.449 90.8227 141.779 92.3977C141.142 93.9727 140.103 96.1844 139.467 97.3573C138.361 99.4014 138.327 99.5355 138.327 103.389C138.327 106.137 138.126 108.114 137.657 110.091C137.288 111.599 136.518 113.777 135.948 114.95C135.378 116.09 134.44 117.698 133.803 118.536C133.2 119.374 131.692 120.915 130.419 121.954C128.978 123.127 126.733 124.501 124.42 125.573C122.376 126.545 120.232 127.55 119.628 127.852C119.025 128.187 118.254 128.69 117.953 129.058C117.551 129.494 117.316 130.6 117.149 132.744C117.015 134.42 116.612 136.699 116.21 137.804C115.842 138.91 114.97 140.787 114.267 141.993C113.596 143.2 112.122 145.143 111.016 146.316C109.91 147.489 108.034 149.165 106.827 150.069C105.621 150.974 103.074 152.516 101.131 153.521C99.1869 154.526 96.104 155.8 94.2609 156.403C92.4178 156.973 89.5359 157.743 87.8939 158.078C86.2519 158.447 82.9008 158.883 80.5216 159.117C78.0418 159.318 74.4897 159.419 72.3115 159.285C70.2003 159.184 66.9498 158.849 65.1067 158.581C63.2637 158.313 60.3818 157.71 58.7397 157.241C57.0977 156.805 54.3499 155.9 52.7078 155.23C51.0658 154.56 48.6196 153.387 47.3462 152.65C46.0728 151.879 44.3302 150.74 43.4924 150.136C42.6547 149.5 41.1132 148.126 40.0409 147.087C38.9685 146.048 37.427 144.205 36.5893 142.999C35.785 141.792 34.7127 139.681 34.2435 138.307C33.7409 136.866 33.2717 134.587 33.1042 132.945C33.0037 131.37 32.7021 129.762 32.501 129.36C32.2664 128.924 31.3951 128.22 30.5239 127.785C29.6191 127.349 28.0776 126.645 27.0723 126.243C26.067 125.841 24.1569 124.903 22.8835 124.132C21.6101 123.395 19.4654 121.719 18.192 120.413C16.55 118.737 15.4776 117.296 14.6064 115.52C13.9362 114.146 13.0984 112.035 12.7968 110.829C12.3947 109.354 12.1601 107.209 12.0261 99.6025L10.0154 95.5812C8.90958 93.3695 7.3681 89.7169 6.63087 87.4382C5.89363 85.193 4.92183 81.5068 4.45268 79.2616C4.01704 76.9829 3.44737 73.2632 3.2463 70.951C3.01173 68.5717 2.94471 64.584 3.04524 61.7356C3.14577 58.9877 3.5479 54.9329 3.91651 52.7548C4.31864 50.6101 5.1564 47.125 5.82661 45.0809C6.49682 43.0032 7.60267 40.0878 8.30639 38.6133C8.9766 37.1389 10.25 34.7261 11.1213 33.2516C12.0261 31.7772 13.6681 29.3644 14.8409 27.8899C16.0138 26.4155 18.2255 23.9692 19.7335 22.4612C21.275 20.9533 23.1516 19.2442 23.8888 18.641C24.626 18.0714 26.3015 16.865 27.5749 15.9937C28.8483 15.1224 30.993 13.8155 32.2664 13.0783C33.5398 12.3411 35.9526 11.1347 37.6281 10.3975C39.3036 9.62671 42.152 8.48735 43.9951 7.85065C45.8382 7.21395 49.2228 6.20863 51.535 5.67247C53.8472 5.10279 57.3658 4.39906 59.41 4.09747Z" stroke="#010101" stroke-width="5"/>
<path d="M46.1925 57.1289C47.1978 56.7268 48.7728 56.2911 49.7111 56.1571C50.6159 55.9895 52.2914 55.956 53.3973 56.0565C54.5031 56.1236 56.3127 56.4252 57.4185 56.6932C58.5244 56.9613 60.1664 57.598 61.0712 58.1007C61.976 58.6033 63.4169 59.7762 64.2547 60.7145C65.0925 61.6193 66.1983 63.2278 66.701 64.2331C67.2036 65.2384 67.8403 66.9475 68.1084 68.0533C68.41 69.1592 68.6446 71.3374 68.6446 72.9123C68.6446 74.856 68.4435 76.498 67.9409 78.1065C67.5722 79.4134 66.7345 81.357 66.1313 82.4628C65.5281 83.5687 64.4222 85.1437 63.7185 85.9815C62.9813 86.8192 61.4398 88.1261 60.2334 88.9304C59.0606 89.7346 56.9159 90.7399 55.4749 91.2091C53.4978 91.8123 52.1574 92.0134 49.8117 92.0134C48.1026 92.0134 45.7234 91.8123 44.517 91.5442C43.3106 91.3096 41.7356 90.807 40.9984 90.4384C40.2612 90.0697 38.9207 88.9304 38.0495 87.9586C37.1447 86.9533 36.1058 85.3112 35.7037 84.3059C35.1005 82.7644 35 81.7591 35 78.1065C35 74.923 35.1676 73.1134 35.6032 71.4044C35.9383 70.0975 36.642 67.9193 37.1782 66.5453C37.7144 65.1714 38.8202 63.1608 39.658 62.122C40.4957 61.0496 41.8697 59.6422 42.7409 59.0055C43.6457 58.3688 45.1872 57.531 46.1925 57.1289Z" fill="#010101"/>
<path d="M91.5993 57.0284C92.5376 56.7603 93.6434 56.4587 94.1126 56.3917C94.5817 56.3246 95.9892 56.2241 97.2961 56.1906C98.603 56.1906 100.513 56.3917 101.585 56.6597C102.624 56.9278 104.434 57.6315 105.607 58.2347C106.746 58.8044 108.522 60.1113 109.561 61.1501C110.767 62.323 111.84 63.831 112.476 65.2049C113.046 66.4113 113.917 68.757 114.42 70.3991C115.023 72.5437 115.358 74.5209 115.459 77.2687C115.626 80.5527 115.559 81.4575 114.956 83.4682C114.521 84.9426 113.783 86.4506 112.979 87.4894C112.242 88.4277 110.901 89.5671 109.997 90.0697C109.092 90.5724 107.316 91.2091 106.009 91.4772C104.702 91.7788 102.39 92.0134 100.815 92.0134C99.2397 92.0134 96.9945 91.7788 95.7881 91.4772C94.5817 91.2091 92.7051 90.5054 91.5993 89.9022C90.4934 89.3325 88.6169 87.858 87.4105 86.6517C86.1036 85.3448 84.7296 83.5352 83.9924 82.1277C83.3222 80.8208 82.5179 78.8772 82.1828 77.7714C81.8142 76.4645 81.6132 74.6214 81.6132 72.5772C81.6132 70.4996 81.8142 68.69 82.1828 67.3831C82.5179 66.2773 83.1546 64.6688 83.5903 63.7975C84.0259 62.8927 85.0312 61.4853 85.802 60.6475C86.6062 59.7762 87.8461 58.7374 88.5833 58.3018C89.3206 57.8661 90.6945 57.2964 91.5993 57.0284Z" fill="#010101"/>
<path d="M70.2866 92.382C71.1244 91.3767 72.4313 90.1368 73.135 89.6006C73.8722 89.0979 74.643 88.6623 74.911 88.6623C75.1456 88.6623 75.7488 88.8634 76.285 89.1314C76.7876 89.366 78.0275 90.4719 79.0328 91.5777C80.0382 92.6501 81.5796 94.5937 82.4174 95.9006C83.2887 97.174 84.5956 99.4192 85.3328 100.894C86.0701 102.368 87.0083 104.714 87.444 106.088C87.8461 107.495 88.2147 109.506 88.2147 110.612C88.2147 112.053 88.0137 112.957 87.511 113.795C87.0754 114.532 86.3046 115.203 85.4334 115.571C84.6961 115.873 83.6908 116.141 83.2217 116.141C82.7525 116.141 81.8142 115.873 81.144 115.571C80.4738 115.236 79.3679 114.298 78.6977 113.46C78.061 112.622 77.0892 110.913 76.5196 109.707C75.9499 108.467 75.4472 107.428 75.3467 107.428C75.2462 107.428 74.911 108.232 74.5424 109.171C74.2073 110.143 73.5706 111.483 73.1685 112.12C72.7664 112.756 71.9956 113.728 71.4595 114.231C70.9233 114.733 69.985 115.37 69.4153 115.638C68.8121 115.906 67.7398 116.141 67.0696 116.141C66.3659 116.141 65.26 115.873 64.6233 115.538C63.8861 115.136 63.1824 114.365 62.6797 113.427C62.2776 112.622 61.9425 111.416 61.9425 110.779C61.9425 110.143 62.2441 108.4 62.6127 106.926C63.0148 105.451 63.9196 102.971 64.6568 101.396C65.3941 99.8213 66.6339 97.5761 67.3712 96.3697C68.1084 95.1633 69.4153 93.3873 70.2866 92.382Z" fill="#010101"/>
</svg>
